<svg width="96" height="96" xmlns="http://www.w3.org/2000/svg">
 <!-- Created with Method Draw - http://github.com/duopixel/Method-Draw/ -->
 <defs>
  <filter height="200%" width="200%" y="-50%" x="-50%" id="svg_5_blur">
   <feGaussianBlur stdDeviation="1" in="SourceGraphic"/>
  </filter>
 </defs>
 <g>
  <title>background</title>
  <rect fill="#03a1fc" id="canvas_background" height="98" width="98" y="-1" x="-1"/>
  <g display="none" overflow="visible" y="0" x="0" height="100%" width="100%" id="canvasGrid">
   <rect fill="url(#gridpattern)" stroke-width="0" y="1" x="1" height="400" width="580"/>
  </g>
 </g>
 <g>
  <title>Layer 1</title>
  <g stroke="null" filter="url(#svg_5_blur)" id="svg_5">
   <path stroke="null" id="svg_6" d="m24.752825,2.999996c-6.674592,0 -10.997745,2.734677 -14.39186,7.611738c-0.615708,0.884717 -0.425886,2.097731 0.432995,2.748978l3.607263,2.735183c0.867412,0.657684 2.101581,0.503901 2.780669,-0.346865c2.094638,-2.624132 3.648413,-4.135002 6.920276,-4.135002c2.572536,0 5.754502,1.655622 5.754502,4.15022c0,1.885832 -1.556786,2.854342 -4.096875,4.278416c-2.962126,1.660727 -6.881969,3.727517 -6.881969,8.897753l0,0.818493c0,1.1084 0.898512,2.006919 2.006919,2.006919l6.06014,0c1.1084,0 2.006912,-0.898519 2.006912,-2.006919l0,-0.482746c0,-3.584027 10.47511,-3.733288 10.47511,-13.431889c0.000083,-7.303846 -7.576198,-12.844278 -14.674082,-12.844278zm-0.837969,31.229239c-3.194014,0 -5.792553,2.598539 -5.792553,5.792553c0,3.193924 2.598539,5.792463 5.792553,5.792463s5.792546,-2.598539 5.792546,-5.792546s-2.598539,-5.79247 -5.792546,-5.79247z" fill="yellow"/>
  </g>
  <g stroke="null" filter="url(#svg_5_blur)" id="svg_9">
   <path stroke="null" id="svg_8" d="m71.325934,2.999996c-6.6746,0 -10.99775,2.73468 -14.39186,7.61174c-0.61571,0.88471 -0.42589,2.09773 0.43299,2.74898l3.60726,2.73518c0.86742,0.65768 2.10158,0.5039 2.78067,-0.34687c2.09464,-2.62413 3.64842,-4.135 6.92028,-4.135c2.57253,0 5.7545,1.65562 5.7545,4.15022c0,1.88583 -1.55678,2.85434 -4.09687,4.27842c-2.96213,1.66073 -6.88197,3.72752 -6.88197,8.89775l0,0.81849c0,1.1084 0.89851,2.00692 2.00692,2.00692l6.06014,0c1.1084,0 2.00691,-0.89852 2.00691,-2.00692l0,-0.48274c0,-3.58403 10.47511,-3.73329 10.47511,-13.43189c0.00008,-7.30385 -7.5762,-12.84428 -14.67408,-12.84428zm-0.83797,31.22924c-3.19402,0 -5.79256,2.59854 -5.79256,5.79255c0,3.19393 2.59854,5.79246 5.79256,5.79246s5.79254,-2.59853 5.79254,-5.79254s-2.59854,-5.79247 -5.79254,-5.79247z" fill="yellow"/>
  </g>
  <g stroke="null" filter="url(#svg_5_blur)" id="svg_11">
   <path stroke="null" id="svg_10" d="m24.752828,50.185753c-6.6746,0 -10.99775,2.73468 -14.39186,7.61174c-0.61571,0.88471 -0.42589,2.09773 0.43299,2.74898l3.60726,2.73518c0.86742,0.65768 2.10158,0.5039 2.78067,-0.34687c2.09464,-2.62413 3.64842,-4.135 6.92028,-4.135c2.57253,0 5.7545,1.65562 5.7545,4.15022c0,1.88583 -1.55678,2.85434 -4.09687,4.27842c-2.96213,1.66073 -6.88197,3.72752 -6.88197,8.89775l0,0.81849c0,1.1084 0.89851,2.00692 2.00692,2.00692l6.06014,0c1.1084,0 2.00691,-0.89852 2.00691,-2.00692l0,-0.48274c0,-3.58403 10.47511,-3.73329 10.47511,-13.43189c0.00008,-7.30385 -7.5762,-12.84428 -14.67408,-12.84428zm-0.83797,31.22924c-3.19402,0 -5.79256,2.59854 -5.79256,5.79255c0,3.19393 2.59854,5.79246 5.79256,5.79246s5.79254,-2.59853 5.79254,-5.79254s-2.59854,-5.79247 -5.79254,-5.79247z" fill="yellow"/>
  </g>
  <g stroke="null" filter="url(#svg_5_blur)" id="svg_13">
   <path stroke="null" id="svg_12" d="m71.325934,50.185753c-6.6746,0 -10.99775,2.73468 -14.39186,7.61174c-0.61571,0.88471 -0.42589,2.09773 0.43299,2.74898l3.60726,2.73518c0.86742,0.65768 2.10158,0.5039 2.78067,-0.34687c2.09464,-2.62413 3.64842,-4.135 6.92028,-4.135c2.57253,0 5.7545,1.65562 5.7545,4.15022c0,1.88583 -1.55678,2.85434 -4.09687,4.27842c-2.96213,1.66073 -6.88197,3.72752 -6.88197,8.89775l0,0.81849c0,1.1084 0.89851,2.00692 2.00692,2.00692l6.06014,0c1.1084,0 2.00691,-0.89852 2.00691,-2.00692l0,-0.48274c0,-3.58403 10.47511,-3.73329 10.47511,-13.43189c0.00008,-7.30385 -7.5762,-12.84428 -14.67408,-12.84428zm-0.83797,31.22924c-3.19402,0 -5.79256,2.59854 -5.79256,5.79255c0,3.19393 2.59854,5.79246 5.79256,5.79246s5.79254,-2.59853 5.79254,-5.79254s-2.59854,-5.79247 -5.79254,-5.79247z" fill="yellow"/>
  </g>
 </g>
</svg>